<svg width="520" height="520" xmlns="http://www.w3.org/2000/svg" xmlns:xlink="http://www.w3.org/1999/xlink" xml:space="preserve" overflow="hidden"><defs><clipPath id="clip0"><rect x="1342" y="146" width="520" height="520"/></clipPath></defs><g clip-path="url(#clip0)" transform="translate(-1342 -146)"><path d="M1342 406C1342 198 1394 146 1602 146 1810 146 1862 198 1862 406 1862 614 1810 666 1602 666 1394 666 1342 614 1342 406" fill="#00B050" fill-rule="evenodd" fill-opacity="0.2"/><path d="M1742 265 1742 421C1742 507.156 1679.77 577 1603 577 1526.23 577 1464 507.156 1464 421L1464 265Z" stroke="#00B050" stroke-width="34.375" stroke-linecap="round" stroke-linejoin="round" stroke-miterlimit="10" fill="none" fill-rule="evenodd"/><path d="M1463 348 1670.9 555.897" stroke="#00B050" stroke-width="21.7708" stroke-miterlimit="8" fill="none" fill-rule="evenodd"/><path d="M1551 266 1732.89 447.89" stroke="#00B050" stroke-width="21.7708" stroke-miterlimit="8" fill="none" fill-rule="evenodd"/></g></svg>