<svg width="520" height="520" xmlns="http://www.w3.org/2000/svg" xmlns:xlink="http://www.w3.org/1999/xlink" xml:space="preserve" overflow="hidden"><g transform="translate(-2278 -1627)"><path d="M2278 1887C2278 1679 2330 1627 2538 1627 2746 1627 2798 1679 2798 1887 2798 2095 2746 2147 2538 2147 2330 2147 2278 2095 2278 1887" fill="#9BC134" fill-rule="evenodd" fill-opacity="0.2"/><g><g><g><path d="M2644.17 1750.5C2660.92 1750.5 2674.5 1764.08 2674.5 1780.83L2674.5 1993.17C2674.5 2009.92 2660.92 2023.5 2644.17 2023.5L2431.83 2023.5C2415.08 2023.5 2401.5 2009.92 2401.5 1993.17L2401.5 1780.83C2401.5 1764.08 2415.08 1750.5 2431.83 1750.5Z" stroke="#9BC134" stroke-width="32.3555" stroke-linecap="round" stroke-linejoin="round" fill="none"/><path d="M2522.83 1841.5C2522.83 1858.25 2509.25 1871.83 2492.5 1871.83 2475.75 1871.83 2462.17 1858.25 2462.17 1841.5 2462.17 1824.75 2475.75 1811.17 2492.5 1811.17 2509.25 1811.17 2522.83 1824.75 2522.83 1841.5Z" stroke="#9BC134" stroke-width="32.3555" stroke-linecap="round" stroke-linejoin="round" fill="none"/><path d="M2674.5 1932.5 2627.7 1885.7C2615.85 1873.85 2596.65 1873.85 2584.8 1885.7L2447 2023.5" stroke="#9BC134" stroke-width="32.3555" stroke-linecap="round" stroke-linejoin="round" fill="none"/></g></g></g></g></svg>