<svg width="520" height="520" xmlns="http://www.w3.org/2000/svg" xmlns:xlink="http://www.w3.org/1999/xlink" xml:space="preserve" overflow="hidden"><defs><clipPath id="clip0"><rect x="1966" y="120" width="520" height="520"/></clipPath></defs><g clip-path="url(#clip0)" transform="translate(-1966 -120)"><path d="M1966 380C1966 172 2018 120 2226 120 2434 120 2486 172 2486 380 2486 588 2434 640 2226 640 2018 640 1966 588 1966 380" fill="#4EA72E" fill-rule="evenodd" fill-opacity="0.2"/><g><g><g><path d="M52 208C52 294.157 121.844 364 208 364 294.157 364 364 294.157 364 208 364 121.844 294.157 52 208 52 164.388 52.1641 122.529 69.1811 91.1733 99.4933L52 138.667" stroke="#4EA72E" stroke-width="34.6667" stroke-linecap="round" stroke-linejoin="round" fill="none" transform="matrix(1 0 0 1 2018 172)"/><path d="M52 52 52 138.667 138.667 138.667" stroke="#4EA72E" stroke-width="34.6667" stroke-linecap="round" stroke-linejoin="round" fill="none" transform="matrix(1 0 0 1 2018 172)"/><path d="M208 121.333 208 208 277.333 242.667" stroke="#4EA72E" stroke-width="34.6667" stroke-linecap="round" stroke-linejoin="round" fill="none" transform="matrix(1 0 0 1 2018 172)"/></g></g></g></g></svg>