<svg width="520" height="520" xmlns="http://www.w3.org/2000/svg" xmlns:xlink="http://www.w3.org/1999/xlink" xml:space="preserve" overflow="hidden"><defs><clipPath id="clip0"><rect x="173" y="146" width="520" height="520"/></clipPath></defs><g clip-path="url(#clip0)" transform="translate(-173 -146)"><path d="M173 406C173 198 225 146 433 146 641 146 693 198 693 406 693 614 641 666 433 666 225 666 173 614 173 406" fill="#C00000" fill-rule="evenodd" fill-opacity="0.2"/><g><g><g><path d="M554.333 562 554.333 527.333C554.333 489.042 523.291 458 485 458L381 458C342.708 458 311.667 489.042 311.667 527.333L311.667 562" stroke="#C00000" stroke-width="34.6667" stroke-linecap="round" stroke-linejoin="round" fill="none"/><path d="M502.333 319.333C502.333 357.625 471.292 388.667 433 388.667 394.708 388.667 363.667 357.625 363.667 319.333 363.667 281.042 394.708 250 433 250 471.292 250 502.333 281.042 502.333 319.333Z" stroke="#C00000" stroke-width="34.6667" stroke-linecap="round" stroke-linejoin="round" fill="none"/></g></g></g></g></svg>